<?xml version="1.0" standalone="no"?>
<!DOCTYPE svg PUBLIC "-//W3C//DTD SVG 20010904//EN"
 "http://www.w3.org/TR/2001/REC-SVG-20010904/DTD/svg10.dtd">
<svg version="1.0" xmlns="http://www.w3.org/2000/svg"
 width="338.000000pt" height="338.000000pt" viewBox="0 0 338.000000 338.000000"
 preserveAspectRatio="xMidYMid meet">
<metadata>
Created by potrace 1.14, written by Peter Selinger 2001-2017
</metadata>
<g transform="translate(0.000000,338.000000) scale(0.100000,-0.100000)"
fill="#000000" stroke="none">
<path d="M282 3074 c-57 -15 -92 -41 -121 -94 l-24 -43 0 -1221 c0 -1324 -3
-1255 53 -1319 52 -60 -31 -57 1508 -57 1353 0 1409 1 1448 19 43 19 86 67
100 111 10 34 12 2414 1 2465 -11 55 -52 104 -106 128 -45 20 -63 20 -1430 21
-990 1 -1397 -2 -1429 -10z m2040 -135 c27 -15 58 -69 58 -102 0 -100 -103
-158 -188 -107 -57 35 -76 121 -39 171 37 50 114 67 169 38z m335 3 c55 -30
81 -109 53 -163 -46 -88 -172 -92 -216 -7 -56 109 57 227 163 170z m360 -11
c86 -63 51 -204 -54 -218 -109 -15 -181 97 -120 188 37 56 119 70 174 30z m19
-350 l31 -1 -1 -1027 -1 -1028 -1370 0 -1371 0 1 1024 c0 958 1 1024 17 1030
13 5 2527 6 2694 2z"/>
<path d="M1770 2117 c-21 -11 -30 -30 -57 -137 -18 -69 -35 -134 -37 -145 -8
-37 -25 -110 -57 -240 -17 -72 -32 -137 -34 -145 -2 -8 -18 -73 -35 -143 -36
-145 -34 -181 8 -194 65 -21 87 2 115 117 31 123 48 195 53 220 3 14 14 59 25
101 11 42 21 85 24 95 2 10 24 103 49 206 49 201 54 239 32 257 -22 18 -58 22
-86 8z"/>
<path d="M1295 1925 c-66 -29 -212 -94 -325 -142 l-205 -89 0 -83 0 -83 319
-139 c175 -76 327 -141 337 -144 18 -6 19 0 19 83 0 60 -4 93 -12 99 -7 5
-113 49 -236 97 l-224 89 59 22 c82 32 276 108 350 136 l63 24 -1 92 c0 65 -4
93 -12 92 -7 0 -66 -24 -132 -54z"/>
<path d="M1952 1889 l-1 -90 52 -23 c29 -12 134 -53 234 -92 100 -38 179 -72
175 -76 -4 -3 -83 -36 -177 -72 -93 -37 -195 -77 -225 -89 l-55 -23 -2 -92
c-1 -51 1 -92 5 -92 7 0 187 77 542 232 l125 55 0 84 0 83 -330 143 c-181 78
-333 143 -336 143 -4 0 -7 -41 -7 -91z"/>
</g>
</svg>
